<?xml version="1.0" encoding="UTF-8" standalone="no"?>
<!DOCTYPE svg PUBLIC "-//W3C//DTD SVG 20010904//EN"
              "http://www.w3.org/TR/2001/REC-SVG-20010904/DTD/svg10.dtd">

<svg xmlns="http://www.w3.org/2000/svg"
     width="14.2222in" height="10.6667in"
     viewBox="0 0 1024 768">
  <path id="Amerika"
        fill="none" stroke="black" stroke-width="1"
        d="M 187.36,374.82
           C 187.36,374.91 186.64,374.36 186.64,374.36
             186.64,374.36 186.18,366.55 186.18,366.55
             186.18,366.55 182.18,359.64 182.27,359.64
             182.36,359.64 180.27,360.45 180.27,360.45
             180.27,360.45 177.73,360.64 177.73,360.64
             177.73,360.64 176.82,361.36 176.82,361.36
             176.82,361.36 175.00,361.36 175.00,361.36
             175.00,361.36 167.55,352.45 167.55,352.45
             167.55,352.45 167.64,348.00 167.64,348.00
             167.64,348.00 166.55,347.09 166.55,347.09
             166.55,347.09 166.18,341.73 166.27,341.73
             166.36,341.73 165.18,340.45 165.18,340.45
             165.18,340.45 165.27,337.36 165.27,337.36
             165.27,337.36 159.36,328.73 159.36,328.82
             159.36,328.91 159.09,326.00 159.09,326.00
             159.09,326.00 158.18,326.09 158.18,326.09
             158.18,326.09 158.45,324.00 158.45,324.00
             158.45,324.00 157.09,323.27 157.09,323.27
             157.09,323.27 157.27,320.82 157.36,320.82
             157.45,320.82 156.82,320.00 156.73,319.91
             156.64,319.82 156.09,317.45 156.09,317.45
             156.09,317.45 155.82,316.00 155.73,316.00
             155.64,316.00 155.91,313.64 155.91,313.73
             155.91,313.82 153.91,311.73 153.91,311.73
             153.91,311.73 151.36,311.36 151.36,311.36
             151.36,311.36 150.91,310.64 150.91,310.64
             150.91,310.64 147.36,310.36 147.36,310.36
             147.36,310.36 141.64,298.82 141.64,298.82
             141.64,298.82 144.64,295.45 144.73,295.45
             144.82,295.45 145.27,292.55 145.36,292.55
             145.45,292.55 146.55,291.36 146.64,291.36
             146.73,291.36 146.18,280.82 146.18,280.82
             146.18,280.82 138.55,280.27 138.55,280.36
             138.55,280.45 138.18,277.36 138.36,277.36
             138.55,277.36 139.36,277.27 139.36,277.27
             139.36,277.27 139.18,270.00 139.18,269.91
             139.18,269.82 140.36,268.18 140.36,268.09
             140.36,268.00 140.36,264.73 140.36,264.64
             140.36,264.55 139.55,263.64 139.64,263.73
             139.73,263.82 139.55,260.18 139.55,260.18
             139.55,260.18 138.82,259.64 138.82,259.64
             138.82,259.64 138.64,257.09 138.64,257.09
             138.64,257.09 137.27,256.45 137.36,256.45
             137.45,256.45 137.55,253.64 137.45,253.55
             137.36,253.45 135.91,252.45 135.91,252.45
             135.91,252.45 136.18,249.00 136.18,249.09
             136.18,249.18 137.18,248.55 137.27,248.55
             137.36,248.55 137.18,245.00 137.18,245.00
             137.18,245.00 138.45,244.36 138.45,244.45
             138.45,244.55 138.00,241.27 138.00,241.27
             138.00,241.27 128.27,231.82 128.36,232.00
             128.45,232.18 121.45,224.73 121.36,224.64
             121.27,224.55 120.55,223.55 120.55,223.55
             120.55,223.55 119.45,223.36 119.36,223.36
             119.27,223.36 114.09,220.00 114.09,220.00
             114.09,220.00 114.55,217.55 114.55,217.55
             114.55,217.55 113.27,217.55 113.27,217.64
             113.27,217.73 113.45,214.18 113.45,214.18
             113.45,214.18 112.45,214.09 112.45,214.18
             112.45,214.27 112.45,212.82 112.45,212.82
             112.45,212.82 111.45,212.73 111.45,212.64
             111.45,212.55 111.36,209.36 111.36,209.45
             111.36,209.55 110.55,209.27 110.55,209.27
             110.55,209.27 110.45,207.64 110.45,207.64
             110.45,207.64 109.73,206.55 109.73,206.55
             109.73,206.55 108.09,202.36 108.27,202.36
             108.45,202.36 108.36,190.18 108.36,190.27
             108.36,190.36 101.45,184.82 101.45,184.82
             101.45,184.82 100.27,180.45 100.27,180.45
             100.27,180.45 91.55,172.45 91.55,172.45
             91.55,172.45 88.18,172.91 88.18,172.91
             88.18,172.91 86.82,171.36 86.91,171.36
             87.00,171.36 79.55,171.45 79.55,171.45
             79.55,171.45 78.64,172.73 78.73,172.64
             78.82,172.55 72.36,172.36 72.36,172.36
             72.36,172.36 72.00,171.36 72.00,171.36
             72.00,171.36 68.27,171.45 67.36,171.45
             66.45,171.45 66.45,170.64 66.45,170.64
             66.45,170.64 64.18,170.45 64.27,170.45
             64.36,170.45 63.27,172.55 63.45,172.55
             63.64,172.55 55.73,184.36 55.82,184.36
             55.91,184.36 51.27,185.18 51.36,185.18
             51.45,185.18 50.27,186.18 50.36,186.18
             50.45,186.18 47.91,186.73 47.91,186.55
             47.91,186.36 40.00,191.91 40.00,191.91
             40.00,191.91 39.55,195.64 39.55,195.64
             39.55,195.64 38.64,195.82 38.55,195.82
             38.45,195.82 38.36,198.45 38.36,198.45
             38.36,198.45 37.55,198.55 37.55,198.55
             37.55,198.55 37.45,197.45 37.18,197.64
             36.91,197.82 34.09,197.36 34.09,197.36
             34.09,197.36 33.64,195.91 33.73,195.91
             33.82,195.91 29.73,195.36 29.73,195.36
             29.73,195.36 29.45,192.36 29.45,192.55
             29.45,192.73 29.47,190.28 29.47,190.28
             29.47,190.28 30.45,188.18 30.64,188.18
             30.82,188.18 34.73,184.64 34.73,184.64
             34.73,184.64 37.45,182.64 37.45,182.64
             37.50,182.69 37.00,181.50 37.00,181.50
             37.00,181.50 21.50,170.50 16.50,171.25
             14.22,172.45 18.25,156.50 15.75,159.00
             15.75,159.25 20.75,150.75 20.75,150.75
             20.75,150.75 26.75,147.75 26.75,147.75
             26.75,147.75 21.25,139.00 21.25,139.00
             21.25,139.00 15.50,143.25 15.50,143.25
             15.50,143.25 17.75,138.25 17.75,138.25
             17.75,138.25 13.00,134.00 13.00,134.00
             13.00,134.00 18.75,129.50 19.00,129.50
             19.25,129.50 20.00,125.25 20.00,125.25
             20.00,125.25 16.25,122.75 16.25,122.75
             16.25,122.75 14.25,118.50 14.50,118.25
             14.75,118.00 16.25,117.25 16.50,117.25
             16.75,117.25 15.75,114.75 16.00,114.50
             16.25,114.25 19.25,113.50 19.25,113.50
             19.25,113.50 20.75,112.50 21.00,112.50
             21.25,112.50 23.75,110.75 23.75,110.75
             23.75,110.75 27.25,108.25 27.25,108.25
             27.25,108.25 36.25,100.75 36.25,100.75
             36.25,100.75 39.00,100.25 39.00,100.25
             39.00,100.25 43.75,98.50 43.75,99.00
             43.75,99.50 47.50,97.75 47.50,97.75
             47.50,97.75 49.75,96.50 50.00,96.50
             50.25,96.50 60.25,106.25 60.25,106.25
             60.25,106.25 62.75,105.75 62.75,105.75
             62.75,105.75 77.75,105.75 77.75,105.75
             77.75,105.75 82.75,106.25 82.75,106.25
             82.75,106.25 85.00,107.50 85.00,107.50
             85.00,107.50 95.50,107.00 95.50,107.00
             95.50,107.00 96.25,108.75 96.75,108.75
             97.25,108.75 100.50,109.75 100.50,109.75
             100.50,109.75 104.25,111.00 104.25,111.00
             104.25,111.00 107.75,116.50 107.75,116.75
             107.75,117.00 108.25,111.50 108.25,111.50
             108.25,111.50 108.75,108.75 108.75,108.75
             108.75,108.75 110.75,107.25 111.00,107.25
             111.25,107.25 121.25,107.00 121.25,107.00
             121.25,107.00 128.25,103.50 128.25,103.50
             128.25,103.50 136.25,107.75 136.25,107.75
             136.25,107.75 143.00,108.25 143.00,108.25
             143.00,108.25 144.75,109.75 144.75,109.75
             144.75,109.75 147.50,110.25 148.25,109.75
             149.00,109.25 153.25,107.00 153.50,107.00
             153.75,107.00 158.25,112.00 158.25,112.00
             158.25,112.00 160.00,112.50 160.25,112.50
             160.50,112.50 163.50,111.50 163.50,111.50
             163.50,111.50 168.00,114.00 168.00,114.00
             168.00,114.00 178.75,112.75 178.75,112.75
             178.75,112.75 191.25,104.50 191.25,104.50
             190.93,106.13 208.67,114.77 208.75,113.25
             208.75,113.25 221.75,113.25 221.75,113.25
             221.75,113.25 223.25,115.50 223.25,115.50
             223.25,115.50 227.00,114.25 227.25,114.25
             227.50,114.25 237.25,111.50 237.25,111.50
             237.25,111.50 257.25,111.25 257.25,111.25
             258.58,113.76 259.98,129.93 259.25,128.75
             259.25,129.00 254.00,131.50 254.00,131.50
             254.00,131.50 250.50,135.25 250.50,135.25
             250.50,135.25 253.50,136.25 253.50,136.25
             253.50,136.25 255.75,135.50 256.00,135.50
             256.25,135.50 259.00,141.25 259.00,141.25
             259.00,141.25 259.50,150.75 259.25,150.75
             259.00,150.75 256.25,149.13 256.38,149.13
             256.50,149.13 255.25,148.38 255.25,148.38
             255.25,148.38 253.25,148.38 253.25,148.38
             253.25,148.38 252.75,149.75 252.75,150.00
             252.75,150.25 246.13,149.88 246.13,149.88
             246.13,149.88 246.00,148.25 246.00,148.25
             246.00,148.25 242.25,148.38 242.25,148.38
             242.25,148.38 241.75,146.25 241.75,146.25
             241.75,146.25 240.88,145.63 240.88,145.63
             239.57,145.92 238.54,150.73 239.13,150.63
             239.25,150.63 238.25,152.25 238.25,152.25
             238.25,152.25 234.75,152.38 234.75,152.50
             234.75,152.63 234.50,151.38 234.50,151.38
             234.50,151.38 216.63,151.38 216.63,151.38
             216.63,151.38 215.50,153.25 215.50,153.38
             215.50,153.50 214.50,155.50 214.38,155.63
             214.25,155.75 212.38,157.13 212.38,157.25
             212.38,157.38 212.25,158.75 212.25,158.75
             212.25,158.75 216.50,158.38 216.50,158.38
             216.50,158.38 217.63,157.63 217.63,157.63
             217.63,157.63 219.25,157.50 219.25,157.50
             219.25,157.50 220.25,156.63 220.25,156.63
             220.25,156.63 223.50,156.50 223.50,156.38
             223.50,156.25 224.38,155.25 224.38,155.25
             224.38,155.25 226.50,155.25 226.50,155.25
             226.50,155.25 227.38,156.63 227.38,156.63
             227.38,156.63 230.13,156.63 230.13,156.63
             230.13,156.63 231.50,157.75 231.50,157.75
             231.50,157.75 233.75,157.38 233.75,157.38
             233.75,157.38 234.00,158.13 234.00,158.25
             234.00,158.38 237.81,158.06 237.81,158.31
             237.81,158.56 238.00,159.38 238.00,159.38
             238.00,159.38 240.75,159.50 240.75,159.50
             240.75,159.50 240.75,162.75 240.75,162.75
             240.75,162.75 241.50,163.00 241.50,162.88
             241.50,162.75 241.38,167.63 241.38,167.63
             241.38,167.63 242.88,168.13 242.88,168.13
             242.88,168.13 243.50,171.38 243.50,171.50
             243.50,171.63 245.00,173.50 245.00,173.50
             245.00,173.50 245.50,176.88 245.50,177.00
             245.50,177.13 246.88,182.75 246.88,182.75
             246.88,182.75 246.73,184.09 246.73,184.09
             246.73,184.09 247.45,184.36 247.45,184.36
             247.45,184.36 247.64,188.64 247.64,188.64
             247.64,188.64 248.91,189.55 248.82,189.55
             248.73,189.55 248.45,191.64 248.45,191.64
             248.45,191.64 249.55,192.00 249.55,192.00
             249.55,192.00 249.73,193.64 249.73,193.55
             249.73,193.45 250.73,194.45 250.64,194.45
             250.55,194.45 252.27,194.55 252.18,194.55
             252.09,194.55 252.36,195.55 252.36,195.55
             252.36,195.55 253.73,196.64 253.73,196.64
             253.73,196.64 254.36,197.36 254.36,197.36
             254.36,197.36 255.73,197.55 255.73,197.55
             255.73,197.55 256.27,198.36 256.27,198.36
             256.27,198.36 265.82,198.27 265.82,198.36
             265.82,198.45 266.27,197.36 266.27,197.36
             266.27,197.36 267.73,197.55 267.73,197.55
             267.73,197.55 268.64,196.91 268.64,197.00
             268.64,197.09 268.55,188.09 268.55,188.09
             268.55,188.09 269.55,187.73 269.55,187.73
             269.55,187.73 269.55,183.18 269.55,183.18
             269.55,183.18 268.55,182.64 268.55,182.64
             268.55,182.64 268.45,180.64 268.45,180.64
             268.45,180.64 267.45,179.64 267.45,179.64
             267.45,179.64 267.55,175.18 267.55,175.18
             267.55,175.18 266.36,174.55 266.36,174.45
             266.36,174.36 266.27,171.27 266.36,171.36
             266.45,171.45 265.27,170.55 265.27,170.55
             265.27,170.55 265.27,169.09 265.27,169.09
             265.27,169.09 264.36,168.55 264.36,168.55
             264.36,168.55 264.73,167.36 264.73,167.36
             264.73,167.36 263.27,166.18 263.27,166.18
             263.27,166.18 263.55,164.55 263.55,164.55
             263.55,164.55 262.45,163.36 262.45,163.36
             262.45,163.36 262.45,160.45 262.45,160.45
             262.45,160.45 261.45,159.64 261.45,159.64
             261.45,159.64 261.45,158.18 261.45,158.18
             261.45,158.18 262.36,157.45 262.36,157.45
             262.36,157.45 263.64,157.09 263.64,157.09
             263.64,157.09 264.57,156.48 264.57,156.48
             264.57,156.48 265.78,156.17 265.78,156.17
             265.78,156.17 266.39,155.78 266.43,155.78
             266.48,155.78 267.61,155.39 267.61,155.39
             267.61,155.39 268.43,154.65 268.43,154.65
             268.43,154.65 269.43,154.13 269.43,154.13
             269.43,154.13 270.61,153.43 270.61,153.43
             270.61,153.43 278.65,153.48 278.65,153.48
             278.65,153.48 278.50,154.38 278.50,154.38
             278.50,154.38 311.81,154.19 311.81,154.19
             311.81,154.19 322.00,185.67 322.00,185.67
             322.00,185.67 329.64,192.27 329.64,192.27
             329.64,192.27 329.82,195.45 329.82,195.45
             329.82,195.45 330.45,196.36 330.45,196.36
             330.45,196.36 330.64,202.64 330.64,202.64
             330.64,202.64 331.45,203.18 331.45,203.18
             331.45,203.18 331.73,206.36 331.73,206.36
             331.73,206.36 332.73,207.45 332.73,207.45
             332.73,207.45 332.64,210.55 332.64,210.55
             332.64,210.55 333.64,211.09 333.64,211.09
             333.64,211.09 333.64,213.82 333.64,213.82
             333.64,213.82 334.55,214.09 334.55,214.09
             334.55,214.09 334.55,216.09 334.55,216.09
             334.55,216.09 335.36,216.45 335.36,216.45
             335.36,216.45 335.64,217.45 335.64,217.45
             335.64,217.45 336.73,218.45 336.73,218.45
             336.73,218.45 336.45,219.27 336.45,219.27
             336.45,219.27 337.09,220.27 337.09,220.27
             337.09,220.27 337.73,222.36 337.64,222.45
             337.55,222.55 338.64,223.36 338.64,223.45
             338.64,223.55 338.55,224.73 338.55,224.73
             338.55,224.73 339.91,225.73 339.82,225.73
             339.73,225.73 339.55,226.55 339.55,226.55
             339.55,226.55 340.36,227.45 340.36,227.45
             340.36,227.45 340.18,230.36 340.18,230.36
             340.18,230.36 341.45,232.55 341.45,232.55
             341.45,232.55 341.55,236.64 341.55,236.64
             341.55,236.64 329.91,240.73 329.91,240.64
             328.00,240.26 321.30,248.99 323.82,249.36
             323.82,249.36 322.64,249.55 322.64,249.55
             322.64,249.55 322.36,251.18 322.36,251.18
             322.36,251.18 315.27,251.09 315.27,251.18
             315.27,251.27 314.55,252.55 314.55,252.55
             314.55,252.55 311.36,252.09 311.36,252.09
             311.36,252.09 310.73,253.55 310.73,253.55
             310.73,253.55 309.27,253.55 309.36,253.55
             309.45,253.55 309.27,259.64 309.36,259.64
             309.45,259.64 307.09,260.09 307.09,259.91
             307.09,259.73 306.64,258.27 306.64,258.27
             306.64,258.27 301.18,258.64 301.18,258.64
             301.18,258.64 301.00,257.36 301.00,257.36
             301.00,257.36 297.45,257.45 297.45,257.45
             297.45,257.45 296.45,258.36 296.45,258.45
             296.45,258.55 295.64,260.18 295.64,260.36
             295.77,261.91 288.16,265.83 288.09,265.18
             288.09,265.18 288.45,267.91 288.45,267.91
             288.45,267.91 291.73,272.55 291.73,272.64
             291.73,272.73 287.45,275.45 287.45,275.45
             287.45,275.45 286.64,279.64 286.64,279.64
             286.64,279.64 285.45,281.82 285.45,281.82
             285.72,283.43 271.03,301.98 270.82,300.73
             269.38,300.41 272.74,305.80 275.38,306.38
             276.15,307.89 265.78,316.54 265.25,315.50
             265.25,315.50 263.44,319.50 263.56,319.50
             263.69,319.50 263.59,322.59 263.59,322.59
             263.59,322.59 262.44,323.47 262.44,323.47
             262.44,323.47 262.41,324.44 262.41,324.47
             262.41,324.50 263.59,325.31 263.59,325.31
             263.59,325.31 263.56,326.47 263.56,326.47
             263.56,326.47 264.28,327.16 264.28,327.16
             264.28,327.16 264.53,328.19 264.53,328.19
             264.53,328.19 265.72,329.56 265.72,329.56
             265.72,329.56 266.72,330.50 266.72,330.50
             266.72,330.50 266.22,331.47 266.25,331.47
             266.28,331.47 267.56,332.47 267.56,332.47
             267.56,332.47 267.53,333.34 267.56,333.38
             267.59,333.41 269.18,335.73 269.09,335.73
             268.25,336.37 281.31,348.70 280.64,349.82
             280.64,349.82 280.55,351.64 280.55,351.64
             280.55,351.64 281.82,352.55 281.73,352.55
             281.64,352.55 281.55,353.55 281.55,353.55
             281.55,353.55 282.36,354.27 282.36,354.27
             282.36,354.27 283.27,355.64 283.18,355.64
             283.09,355.64 281.45,358.73 281.45,358.73
             281.45,358.73 276.82,360.55 276.82,360.64
             276.82,360.73 259.27,349.45 259.27,349.45
             259.27,349.45 258.55,346.36 258.55,346.36
             258.55,346.36 259.55,345.09 259.55,345.09
             259.55,345.09 259.73,343.00 259.73,343.00
             259.73,343.00 254.45,340.27 254.45,340.27
             254.45,340.27 243.55,330.55 243.55,330.55
             243.55,330.55 244.18,329.55 244.36,329.55
             244.55,329.55 244.27,327.55 244.27,327.55
             244.27,327.55 241.09,327.18 241.09,327.18
             241.09,327.18 239.73,326.55 239.73,326.55
             239.73,326.55 236.18,325.82 235.82,326.09
             235.45,326.36 230.45,325.18 230.36,325.18
             230.27,325.18 225.00,330.09 225.00,330.09
             225.00,330.09 220.64,336.73 220.64,336.55
             220.64,336.36 215.45,344.27 215.45,344.27
             215.45,344.27 209.00,355.55 208.91,355.55
             208.82,355.55 215.82,368.18 215.82,368.18
             215.82,368.18 228.09,376.73 228.09,376.73
             228.09,376.73 228.55,374.55 228.55,374.55
             228.55,374.55 227.73,373.09 227.73,373.09
             227.73,373.09 227.09,370.64 227.27,370.64
             227.45,370.64 237.64,368.55 237.64,368.55
             237.64,368.55 238.55,369.82 238.55,369.82
             238.55,369.82 241.82,369.82 241.82,369.82
             241.82,369.82 241.82,371.55 241.82,371.55
             241.82,371.55 239.82,372.18 240.00,373.27
             240.18,374.36 239.55,375.82 239.55,375.82
             239.55,375.82 240.82,377.55 240.73,377.55
             240.64,377.55 240.36,379.45 240.36,379.45
             240.36,379.45 236.00,384.27 236.00,384.36
             234.84,385.38 245.75,392.91 246.55,392.27
             246.55,392.27 255.73,397.64 255.73,397.64
             255.73,397.64 255.82,398.64 255.82,398.64
             255.82,398.64 254.64,399.36 254.73,399.36
             254.82,399.36 254.36,402.09 254.45,402.09
             254.55,402.09 253.09,402.64 253.18,402.64
             253.27,402.64 253.45,408.82 253.45,408.82
             253.45,408.82 252.18,409.73 252.18,409.64
             252.18,409.55 252.82,411.64 252.82,411.64
             252.82,411.64 254.18,413.36 254.27,413.36
             254.36,413.36 257.64,413.55 257.73,413.55
             257.82,413.55 259.18,415.00 259.18,414.82
             259.18,414.64 258.55,419.00 258.55,419.09
             258.55,419.18 257.73,420.82 257.73,420.82
             257.73,420.82 260.27,420.45 260.27,420.55
             260.27,420.64 262.00,419.27 262.00,419.27
             262.00,419.27 263.45,418.27 263.55,418.27
             263.64,418.27 266.55,418.64 266.64,418.64
             266.73,418.64 271.82,424.36 271.82,424.36
             271.82,424.36 272.73,425.27 272.73,425.27
             272.73,425.27 272.55,426.55 272.55,426.55
             272.55,426.55 271.55,427.55 271.55,427.55
             271.55,427.55 271.55,428.55 271.55,428.55
             271.55,428.55 271.64,429.45 271.64,429.45
             271.64,429.45 270.45,430.55 270.45,430.55
             270.45,430.55 270.36,432.36 270.55,432.27
             270.73,432.18 269.91,433.18 269.91,433.27
             269.91,433.36 268.00,433.55 268.00,433.55
             268.00,433.55 267.27,432.45 267.27,432.45
             267.27,432.45 266.09,430.27 266.09,430.27
             266.09,430.27 264.64,428.45 264.64,428.45
             264.64,428.45 259.36,432.45 259.36,432.45
             259.36,432.45 244.64,420.55 244.64,420.55
             243.87,420.82 235.86,403.57 236.45,403.36
             236.45,403.36 235.27,401.73 235.27,401.73
             235.27,401.73 228.91,404.45 228.91,404.45
             228.91,404.45 228.55,401.36 228.55,401.36
             228.55,401.36 229.27,400.18 229.36,400.18
             229.45,400.18 229.45,398.00 229.45,398.00
             229.45,398.00 227.18,396.73 227.18,396.73
             227.18,396.73 223.64,394.73 223.64,394.73
             223.64,394.73 218.00,397.36 218.00,397.36
             216.64,398.90 186.88,379.38 187.45,378.73" />
</svg>
